<svg width="60" height="60" viewBox="0 0 60 60" fill="none" xmlns="http://www.w3.org/2000/svg">
<path d="M41.47 25.855C43.5446 28.52 44.6676 31.8027 44.66 35.18C44.66 38.7525 43.425 42.03 41.38 44.62L41.205 44.84L41.16 44.545C41.1176 44.3039 41.0692 44.0638 41.015 43.825C39.985 39.2225 36.66 35.2675 31.1625 32.0625C27.455 29.9125 25.325 27.3275 24.765 24.3875C24.4575 22.555 24.6087 20.6748 25.205 18.915C25.6229 17.5395 26.275 16.2463 27.1325 15.0925L29.28 12.4175C29.3667 12.31 29.4764 12.2233 29.601 12.1637C29.7256 12.1041 29.8619 12.0732 30 12.0732C30.1381 12.0732 30.2745 12.1041 30.3991 12.1637C30.5236 12.2233 30.6333 12.31 30.72 12.4175L41.47 25.855ZM44.85 23.18L30.53 5.255C30.4668 5.17489 30.3863 5.11015 30.2945 5.06564C30.2027 5.02113 30.102 4.998 30 4.998C29.898 4.998 29.7973 5.02113 29.7055 5.06564C29.6137 5.11015 29.5332 5.17489 29.47 5.255L15.15 23.195L15.1075 23.2375C12.3631 26.7242 10.8761 31.0353 10.8875 35.4725C10.885 46.25 19.4425 55 30 55C40.5575 55 49.115 46.25 49.115 35.4725C49.1264 31.0353 47.6394 26.7242 44.895 23.2375L44.85 23.18ZM18.575 25.7975L19.855 24.195L19.8975 24.4875L20 25.195C20.84 29.65 23.795 33.355 28.75 36.2225C33.0575 38.7375 35.5575 41.62 36.28 44.78C36.5725 46.105 36.63 47.3975 36.5 48.53V48.605L36.44 48.6325C34.44 49.6325 32.235 50.15 30 50.1475C21.9125 50.1475 15.34 43.4425 15.34 35.1775C15.34 31.635 16.545 28.37 18.575 25.7975Z" fill="#4BA2FF"/>
</svg>
