<svg fill="none" height="24" viewBox="0 0 24 24" width="24" xmlns="http://www.w3.org/2000/svg"><g fill="#292d32"><path d="m22 6.31006h-10c-.41 0-.75-.34-.75-.75s.34-.75.75-.75h10c.41 0 .75.34.75.75 0 .42-.34.75-.75.75z"/><path d="m19.7798 11.25h-5.55c-2.19 0-2.97-.77-2.97-2.95v-4.1c0-2.18.78-2.95 2.97-2.95h5.55c2.19 0 2.97.77 2.97 2.95v4.11c0 2.17-.78 2.94-2.97 2.94zm-5.56-8.5c-1.36 0-1.47.11-1.47 1.45v4.11c0 1.34.11 1.45 1.47 1.45h5.5499c1.36 0 1.47-.11 1.47-1.45v-4.11c0-1.34-.11-1.45-1.47-1.45z"/><path d="m12 17.8101h-10c-.41 0-.75-.34-.75-.75s.34-.75.75-.75h10c.41 0 .75.34.75.75 0 .42-.34.75-.75.75z"/><path d="m9.77975 22.75h-5.54998c-2.19 0-2.97-.77-2.97-2.95v-4.1c0-2.18.78-2.95 2.97-2.95h5.54998c2.19005 0 2.97005.77 2.97005 2.95v4.11c0 2.17-.78 2.94-2.97005 2.94zm-5.55999-8.5c-1.36 0-1.47.11-1.47 1.45v4.11c0 1.34.11 1.45 1.47 1.45h5.54998c1.35996 0 1.46996-.11 1.46996-1.45v-4.11c0-1.34-.11-1.45-1.46996-1.45z"/><path d="m15.0002 22.7502c-.27 0-.52-.15-.65-.38-.13-.24-.13-.52.01-.76l1.05-1.75c.21-.35.67-.47 1.03-.26s.47.67.26 1.03l-.27.45c2.76-.65 4.83-3.13 4.83-6.09 0-.41.34-.75.75-.75s.75.34.75.75c-.01 4.28-3.49 7.76-7.76 7.76z"/><path d="m2 9.75c-.41 0-.75-.34-.75-.75 0-4.27 3.48-7.75 7.75-7.75.27 0 .51999.15.64999.38.13.24.13002.52-.00998.76l-1.05001 1.75c-.21.35-.67.47-1.03.26s-.47001-.67-.26001-1.03l.27002-.45c-2.76.65-4.83002 3.13-4.83002 6.09.01.4-.32999.74-.73999.74z"/></g></svg>