<svg width="14" height="13" viewBox="0 0 14 13" fill="none" xmlns="http://www.w3.org/2000/svg">
<path d="M13.2328 5.08401C13.2457 4.99728 13.2413 4.90887 13.2199 4.82384C13.1985 4.73881 13.1606 4.65883 13.1083 4.58849C13.0559 4.51814 12.9902 4.45881 12.915 4.41388C12.8397 4.36896 12.7563 4.33932 12.6695 4.32668L8.90217 3.77601L7.21817 0.344678C7.15738 0.239794 7.07008 0.152736 6.96503 0.0922395C6.85998 0.0317425 6.74087 -6.74281e-05 6.61964 1.07314e-07C6.49841 6.76427e-05 6.37934 0.0320103 6.27435 0.0926243C6.16937 0.153238 6.08217 0.240392 6.0215 0.345345L4.33817 3.77601L0.570832 4.32668C0.447862 4.34454 0.332332 4.39642 0.237278 4.47645C0.142224 4.55648 0.07143 4.66149 0.0328848 4.77962C-0.00566037 4.89775 -0.0104224 5.02431 0.0191357 5.145C0.0486938 5.2657 0.111395 5.37573 0.200165 5.46268L2.92883 8.13801L2.28483 11.914C2.26447 12.0366 2.2787 12.1624 2.3259 12.2773C2.37311 12.3922 2.45143 12.4917 2.55206 12.5645C2.65269 12.6374 2.77164 12.6808 2.89555 12.6897C3.01946 12.6987 3.14342 12.6729 3.2535 12.6153L6.62016 10.8353L9.98617 12.6147C10.0961 12.6729 10.2201 12.6992 10.3442 12.6906C10.4683 12.682 10.5876 12.6388 10.6884 12.566C10.7893 12.4931 10.8677 12.3935 10.9149 12.2784C10.9621 12.1634 10.9762 12.0373 10.9555 11.9147L10.3115 8.13801L13.0408 5.46201C13.1443 5.36026 13.2117 5.22755 13.2328 5.08401Z" fill="#FFCE31"/>
</svg>
