<svg width="14" height="14" viewBox="0 0 14 14" fill="none" xmlns="http://www.w3.org/2000/svg">
<path d="M13.6127 5.75131C13.6255 5.66458 13.6211 5.57617 13.5997 5.49114C13.5784 5.40611 13.5404 5.32613 13.4881 5.25579C13.4358 5.18544 13.3701 5.1261 13.2948 5.08118C13.2195 5.03625 13.1361 5.00662 13.0493 4.99398L9.28199 4.44331L7.59799 1.01198C7.5372 0.907091 7.4499 0.820034 7.34485 0.759537C7.2398 0.69904 7.12069 0.66723 6.99946 0.667297C6.87824 0.667365 6.75916 0.699308 6.65417 0.759922C6.54919 0.820536 6.46199 0.90769 6.40132 1.01264L4.71799 4.44331L0.950654 4.99398C0.827684 5.01184 0.712154 5.06371 0.6171 5.14375C0.522046 5.22378 0.451252 5.32879 0.412707 5.44692C0.374162 5.56505 0.369399 5.69161 0.398957 5.8123C0.428515 5.93299 0.491217 6.04302 0.579987 6.12998L3.30865 8.80531L2.66465 12.5813C2.6443 12.7039 2.65852 12.8297 2.70573 12.9446C2.75293 13.0595 2.83125 13.159 2.93188 13.2318C3.03251 13.3047 3.15146 13.3481 3.27537 13.357C3.39928 13.366 3.52324 13.3402 3.63332 13.2826L6.99999 11.5026L10.366 13.282C10.4759 13.3402 10.6 13.3665 10.7241 13.3579C10.8482 13.3493 10.9674 13.3061 11.0682 13.2333C11.1691 13.1604 11.2475 13.0608 11.2947 12.9457C11.3419 12.8307 11.356 12.7046 11.3353 12.582L10.6913 8.80531L13.4207 6.12931C13.5241 6.02756 13.5915 5.89484 13.6127 5.75131ZM10.1 8.45131C10.0615 8.48898 10.0328 8.53539 10.0162 8.58659C9.99959 8.63779 9.99563 8.69225 10.0047 8.74531L10.678 12.6926L7.15532 10.8306C7.10743 10.8054 7.05412 10.7922 6.99999 10.7922C6.94586 10.7922 6.89255 10.8054 6.84465 10.8306L3.32199 12.6933L3.99532 8.74531C4.00435 8.69225 4.00039 8.63779 3.98379 8.58659C3.96719 8.53539 3.93843 8.48898 3.89999 8.45131L1.04665 5.65331L4.98799 5.07731C5.04163 5.06949 5.09256 5.04871 5.13635 5.01676C5.18015 4.98481 5.21549 4.94267 5.23932 4.89398L6.99999 1.30664L8.75999 4.89464C8.78388 4.94342 8.81932 4.98562 8.86324 5.01757C8.90716 5.04952 8.95823 5.07026 9.01199 5.07798L12.954 5.65331L10.1 8.45131Z" fill="black"/>
</svg>
