<svg width="40" height="40" viewBox="0 0 40 40" fill="none" xmlns="http://www.w3.org/2000/svg">
<path d="M20.4663 32.05C21.6397 31.9666 22.7975 31.7794 23.9397 31.4883C25.3452 31.9096 26.8283 32.0053 28.2763 31.7683C28.3339 31.7609 28.3917 31.7564 28.4497 31.755C28.9663 31.755 29.6447 32.0516 30.633 32.6766V31.65C30.6333 31.4711 30.6815 31.2956 30.7726 31.1417C30.8638 30.9878 30.9946 30.8611 31.1513 30.775C31.5813 30.5366 31.9813 30.2583 32.3463 29.955C33.7863 28.75 34.5997 27.145 34.5997 25.445C34.5991 24.8828 34.5097 24.3242 34.3347 23.79C34.768 22.99 35.1213 22.1466 35.3797 21.2733C36.213 22.5066 36.663 23.9566 36.6663 25.445C36.6663 27.755 35.5763 29.9116 33.6913 31.4866C33.376 31.749 33.0448 31.9917 32.6997 32.2133V34.6166C32.6997 35.4433 31.733 35.9166 31.0513 35.4266C30.4064 34.9504 29.739 34.5054 29.0513 34.0933C28.8536 33.9771 28.6481 33.8746 28.4363 33.7866C27.8697 33.8711 27.293 33.9139 26.7063 33.915C24.353 33.915 22.178 33.2183 20.4663 32.05ZM8.02301 27.24C5.04967 24.7566 3.33301 21.3633 3.33301 17.7333C3.33301 10.31 10.4297 4.37665 19.0947 4.37665C27.7597 4.37665 34.858 10.31 34.858 17.7333C34.858 25.1566 27.7597 31.0883 19.0947 31.0883C18.1202 31.0883 17.1602 31.0144 16.2147 30.8666C15.8063 30.9616 14.1747 31.9183 11.823 33.6133C10.973 34.2283 9.76301 33.635 9.76301 32.6V28.5C9.15374 28.1232 8.57226 27.7032 8.02301 27.2433M16.273 28.34C16.343 28.34 16.4152 28.3455 16.4897 28.3566C17.3506 28.4994 18.2219 28.5708 19.0947 28.57C26.4147 28.57 32.273 23.6716 32.273 17.7333C32.273 11.795 26.4147 6.89831 19.0947 6.89831C11.778 6.89831 5.91634 11.7966 5.91634 17.7333C5.91634 20.605 7.28468 23.3083 9.70468 25.3316C10.3158 25.8405 10.9802 26.2966 11.698 26.7C12.0997 26.925 12.348 27.3416 12.348 27.7916V30.1566C14.208 28.9233 15.4313 28.34 16.2713 28.34" fill="white"/>
<path d="M12.7083 20C13.2609 20 13.7908 19.7805 14.1815 19.3898C14.5722 18.9991 14.7917 18.4692 14.7917 17.9166C14.7917 17.3641 14.5722 16.8342 14.1815 16.4435C13.7908 16.0528 13.2609 15.8333 12.7083 15.8333C12.1558 15.8333 11.6259 16.0528 11.2352 16.4435C10.8445 16.8342 10.625 17.3641 10.625 17.9166C10.625 18.4692 10.8445 18.9991 11.2352 19.3898C11.6259 19.7805 12.1558 20 12.7083 20ZM19.4783 20C20.0309 20 20.5608 19.7805 20.9515 19.3898C21.3422 18.9991 21.5617 18.4692 21.5617 17.9166C21.5617 17.3641 21.3422 16.8342 20.9515 16.4435C20.5608 16.0528 20.0309 15.8333 19.4783 15.8333C18.9258 15.8333 18.3959 16.0528 18.0052 16.4435C17.6145 16.8342 17.395 17.3641 17.395 17.9166C17.395 18.4692 17.6145 18.9991 18.0052 19.3898C18.3959 19.7805 18.9258 20 19.4783 20ZM26.25 20.0016C26.8025 20.0016 27.3324 19.7822 27.7231 19.3915C28.1138 19.0008 28.3333 18.4708 28.3333 17.9183C28.3333 17.3658 28.1138 16.8359 27.7231 16.4452C27.3324 16.0545 26.8025 15.835 26.25 15.835C25.6975 15.835 25.1676 16.0545 24.7769 16.4452C24.3862 16.8359 24.1667 17.3658 24.1667 17.9183C24.1667 18.4708 24.3862 19.0008 24.7769 19.3915C25.1676 19.7822 25.6975 20.0016 26.25 20.0016Z" fill="white"/>
</svg>
