<svg width="40" height="40" viewBox="0 0 40 40" fill="none" xmlns="http://www.w3.org/2000/svg">
<path d="M4 14C4 12.4087 4.63214 10.8826 5.75736 9.75736C6.88258 8.63214 8.4087 8 10 8H20C21.5913 8 23.1174 8.63214 24.2426 9.75736C25.3679 10.8826 26 12.4087 26 14V26C26 27.5913 25.3679 29.1174 24.2426 30.2426C23.1174 31.3679 21.5913 32 20 32H10C8.4087 32 6.88258 31.3679 5.75736 30.2426C4.63214 29.1174 4 27.5913 4 26V14ZM32.074 29.552L28 26.738V13.26L32.074 10.448C32.4491 10.1891 32.8879 10.0377 33.3428 10.0101C33.7977 9.98258 34.2516 10.0799 34.6552 10.2916C35.0588 10.5033 35.3969 10.8213 35.6329 11.2113C35.8688 11.6012 35.9937 12.0482 35.994 12.504V27.494C35.9941 27.9499 35.8695 28.3972 35.6336 28.7875C35.3978 29.1777 35.0598 29.496 34.6561 29.7079C34.2524 29.9199 33.7984 30.0174 33.3433 29.9899C32.8882 29.9624 32.4493 29.811 32.074 29.552Z" fill="white"/>
</svg>
